# Blender v2.93.5 OBJ File: ''
# www.blender.org
o Cylinder.003
v 0.000000 0.000000 -0.500000
v 0.000000 0.200000 -0.500000
v 0.097545 0.200000 -0.490393
v 0.097545 0.000000 -0.490393
v 0.191342 0.200000 -0.461940
v 0.191342 0.000000 -0.461940
v 0.277785 0.200000 -0.415735
v 0.277785 0.000000 -0.415735
v 0.353553 0.200000 -0.353553
v 0.353553 0.000000 -0.353553
v 0.415735 0.200000 -0.277785
v 0.415735 0.000000 -0.277785
v 0.461940 0.200000 -0.191342
v 0.461940 0.000000 -0.191342
v 0.490393 0.200000 -0.097545
v 0.490393 0.000000 -0.097545
v 0.500000 0.200000 0.000000
v 0.500000 0.000000 0.000000
v 0.490393 0.200000 0.097545
v 0.490393 -0.000000 0.097545
v 0.461940 0.200000 0.191342
v 0.461940 -0.000000 0.191342
v 0.415735 0.200000 0.277785
v 0.415735 -0.000000 0.277785
v 0.353553 0.200000 0.353553
v 0.353553 -0.000000 0.353553
v 0.277785 0.200000 0.415735
v 0.277785 -0.000000 0.415735
v 0.191342 0.200000 0.461940
v 0.191342 -0.000000 0.461940
v 0.097545 0.200000 0.490393
v 0.097545 -0.000000 0.490393
v 0.000000 0.200000 0.500000
v 0.000000 -0.000000 0.500000
v -0.097545 0.200000 0.490393
v -0.097545 -0.000000 0.490393
v -0.191342 0.200000 0.461940
v -0.191342 -0.000000 0.461940
v -0.277785 0.200000 0.415735
v -0.277785 -0.000000 0.415735
v -0.353553 0.200000 0.353553
v -0.353553 -0.000000 0.353553
v -0.415735 0.200000 0.277785
v -0.415735 -0.000000 0.277785
v -0.461940 0.200000 0.191342
v -0.461940 -0.000000 0.191342
v -0.490393 0.200000 0.097545
v -0.490393 -0.000000 0.097545
v -0.500000 0.200000 0.000000
v -0.500000 0.000000 0.000000
v -0.490393 0.200000 -0.097545
v -0.490393 0.000000 -0.097545
v -0.461940 0.200000 -0.191342
v -0.461940 0.000000 -0.191342
v -0.415735 0.200000 -0.277785
v -0.415735 0.000000 -0.277785
v -0.353553 0.200000 -0.353553
v -0.353553 0.000000 -0.353553
v -0.277785 0.200000 -0.415735
v -0.277785 0.000000 -0.415735
v -0.191342 0.200000 -0.461940
v -0.191342 0.000000 -0.461940
v -0.097545 0.200000 -0.490393
v -0.097545 0.000000 -0.490393
vt 0.653012 0.327586
vt 0.643467 0.174876
vt 0.653012 0.174876
vt 0.643467 0.327586
vt 0.633923 0.174876
vt 0.633923 0.327586
vt 0.624378 0.174876
vt 0.624378 0.327586
vt 0.614834 0.174876
vt 0.614834 0.327586
vt 0.605290 0.174876
vt 0.605290 0.327586
vt 0.595745 0.174876
vt 0.595745 0.327586
vt 0.586201 0.174876
vt 0.586201 0.327586
vt 0.576657 0.174876
vt 0.576657 0.327586
vt 0.567112 0.174876
vt 0.567112 0.327586
vt 0.557568 0.174876
vt 0.557568 0.327586
vt 0.548024 0.174876
vt 0.548024 0.327586
vt 0.538479 0.174876
vt 0.538479 0.327586
vt 0.528935 0.174876
vt 0.528935 0.327586
vt 0.519390 0.174876
vt 0.519390 0.327586
vt 0.509846 0.174876
vt 0.509846 0.327586
vt 0.500302 0.174876
vt 0.500302 0.327586
vt 0.490757 0.174876
vt 0.490757 0.327586
vt 0.481213 0.174876
vt 0.481213 0.327586
vt 0.471669 0.174876
vt 0.471669 0.327586
vt 0.462124 0.174876
vt 0.462124 0.327586
vt 0.452580 0.174876
vt 0.452580 0.327586
vt 0.443036 0.174876
vt 0.443036 0.327586
vt 0.433491 0.174876
vt 0.433491 0.327586
vt 0.423947 0.174876
vt 0.423947 0.327586
vt 0.414402 0.174876
vt 0.414402 0.327586
vt 0.404858 0.174876
vt 0.404858 0.327586
vt 0.395314 0.174876
vt 0.395314 0.327586
vt 0.385769 0.174876
vt 0.385769 0.327586
vt 0.376225 0.174876
vt 0.376225 0.327586
vt 0.366681 0.174876
vt 0.366917 0.163678
vt 0.488995 0.214244
vt 0.438428 0.336322
vt 0.366681 0.327586
vt 0.357136 0.174876
vt 0.357136 0.327586
vt 0.347592 0.174876
vt 0.505689 0.231772
vt 0.519640 0.301909
vt 0.579099 0.341639
vt 0.420901 0.341639
vt 0.402672 0.343434
vt 0.384444 0.341639
vt 0.366917 0.336322
vt 0.350763 0.327688
vt 0.336604 0.316068
vt 0.324984 0.301909
vt 0.316350 0.285756
vt 0.311033 0.268228
vt 0.309238 0.250000
vt 0.311033 0.231772
vt 0.316350 0.214244
vt 0.324984 0.198091
vt 0.336604 0.183932
vt 0.350763 0.172312
vt 0.384444 0.158361
vt 0.402672 0.156566
vt 0.420901 0.158361
vt 0.438428 0.163678
vt 0.454582 0.172312
vt 0.468741 0.183932
vt 0.480360 0.198091
vt 0.494311 0.231772
vt 0.496107 0.250000
vt 0.494311 0.268228
vt 0.488995 0.285756
vt 0.480360 0.301909
vt 0.468741 0.316068
vt 0.454582 0.327688
vt 0.347592 0.327586
vt 0.597328 0.343434
vt 0.649237 0.327688
vt 0.615556 0.341639
vt 0.633083 0.336322
vt 0.663396 0.316068
vt 0.688967 0.268228
vt 0.675016 0.301909
vt 0.683650 0.285756
vt 0.690762 0.250000
vt 0.675016 0.198091
vt 0.688967 0.231772
vt 0.683650 0.214244
vt 0.663396 0.183932
vt 0.615556 0.158361
vt 0.649237 0.172312
vt 0.633083 0.163678
vt 0.597328 0.156566
vt 0.545418 0.172312
vt 0.579099 0.158361
vt 0.561572 0.163678
vt 0.531259 0.183932
vt 0.519640 0.198091
vt 0.511005 0.214244
vt 0.503893 0.250000
vt 0.505689 0.268228
vt 0.511005 0.285756
vt 0.531259 0.316068
vt 0.545418 0.327688
vt 0.561572 0.336322
vn 0.0980 0.0000 -0.9952
vn 0.2903 0.0000 -0.9569
vn 0.4714 0.0000 -0.8819
vn 0.6344 0.0000 -0.7730
vn 0.7730 0.0000 -0.6344
vn 0.8819 0.0000 -0.4714
vn 0.9569 0.0000 -0.2903
vn 0.9952 0.0000 -0.0980
vn 0.9952 -0.0000 0.0980
vn 0.9569 0.0000 0.2903
vn 0.8819 -0.0000 0.4714
vn 0.7730 -0.0000 0.6344
vn 0.6344 -0.0000 0.7730
vn 0.4714 -0.0000 0.8819
vn 0.2903 -0.0000 0.9569
vn 0.0980 -0.0000 0.9952
vn -0.0980 -0.0000 0.9952
vn -0.2903 -0.0000 0.9569
vn -0.4714 -0.0000 0.8819
vn -0.6344 -0.0000 0.7730
vn -0.7730 -0.0000 0.6344
vn -0.8819 -0.0000 0.4714
vn -0.9569 0.0000 0.2903
vn -0.9952 -0.0000 0.0980
vn -0.9952 0.0000 -0.0980
vn -0.9569 0.0000 -0.2903
vn -0.8819 0.0000 -0.4714
vn -0.7730 0.0000 -0.6344
vn -0.6344 0.0000 -0.7730
vn -0.4714 0.0000 -0.8819
vn -0.0000 1.0000 0.0000
vn -0.2903 0.0000 -0.9569
vn -0.0980 0.0000 -0.9952
vn -0.0000 -1.0000 -0.0000
usemtl None
s 1
f 2/1/1 4/2/1 1/3/1
f 3/4/2 6/5/2 4/2/2
f 5/6/3 8/7/3 6/5/3
f 7/8/4 10/9/4 8/7/4
f 9/10/5 12/11/5 10/9/5
f 11/12/6 14/13/6 12/11/6
f 13/14/7 16/15/7 14/13/7
f 15/16/8 18/17/8 16/15/8
f 17/18/9 20/19/9 18/17/9
f 19/20/10 22/21/10 20/19/10
f 21/22/11 24/23/11 22/21/11
f 23/24/12 26/25/12 24/23/12
f 25/26/13 28/27/13 26/25/13
f 27/28/14 30/29/14 28/27/14
f 29/30/15 32/31/15 30/29/15
f 31/32/16 34/33/16 32/31/16
f 33/34/17 36/35/17 34/33/17
f 35/36/18 38/37/18 36/35/18
f 37/38/19 40/39/19 38/37/19
f 39/40/20 42/41/20 40/39/20
f 41/42/21 44/43/21 42/41/21
f 43/44/22 46/45/22 44/43/22
f 45/46/23 48/47/23 46/45/23
f 47/48/24 50/49/24 48/47/24
f 49/50/25 52/51/25 50/49/25
f 51/52/26 54/53/26 52/51/26
f 53/54/27 56/55/27 54/53/27
f 55/56/28 58/57/28 56/55/28
f 57/58/29 60/59/29 58/57/29
f 59/60/30 62/61/30 60/59/30
f 37/62/31 21/63/31 5/64/31
f 61/65/32 64/66/32 62/61/32
f 63/67/33 1/68/33 64/66/33
f 48/69/34 56/70/34 64/71/34
f 2/1/1 3/4/1 4/2/1
f 3/4/2 5/6/2 6/5/2
f 5/6/3 7/8/3 8/7/3
f 7/8/4 9/10/4 10/9/4
f 9/10/5 11/12/5 12/11/5
f 11/12/6 13/14/6 14/13/6
f 13/14/7 15/16/7 16/15/7
f 15/16/8 17/18/8 18/17/8
f 17/18/9 19/20/9 20/19/9
f 19/20/10 21/22/10 22/21/10
f 21/22/11 23/24/11 24/23/11
f 23/24/12 25/26/12 26/25/12
f 25/26/13 27/28/13 28/27/13
f 27/28/14 29/30/14 30/29/14
f 29/30/15 31/32/15 32/31/15
f 31/32/16 33/34/16 34/33/16
f 33/34/17 35/36/17 36/35/17
f 35/36/18 37/38/18 38/37/18
f 37/38/19 39/40/19 40/39/19
f 39/40/20 41/42/20 42/41/20
f 41/42/21 43/44/21 44/43/21
f 43/44/22 45/46/22 46/45/22
f 45/46/23 47/48/23 48/47/23
f 47/48/24 49/50/24 50/49/24
f 49/50/25 51/52/25 52/51/25
f 51/52/26 53/54/26 54/53/26
f 53/54/27 55/56/27 56/55/27
f 55/56/28 57/58/28 58/57/28
f 57/58/29 59/60/29 60/59/29
f 59/60/30 61/65/30 62/61/30
f 5/64/31 3/72/31 2/73/31
f 2/73/31 63/74/31 61/75/31
f 61/75/31 59/76/31 57/77/31
f 57/77/31 55/78/31 53/79/31
f 53/79/31 51/80/31 49/81/31
f 49/81/31 47/82/31 45/83/31
f 45/83/31 43/84/31 41/85/31
f 41/85/31 39/86/31 37/62/31
f 37/62/31 35/87/31 33/88/31
f 33/88/31 31/89/31 29/90/31
f 29/90/31 27/91/31 25/92/31
f 25/92/31 23/93/31 21/63/31
f 21/63/31 19/94/31 17/95/31
f 17/95/31 15/96/31 13/97/31
f 13/97/31 11/98/31 9/99/31
f 9/99/31 7/100/31 5/64/31
f 5/64/31 2/73/31 61/75/31
f 61/75/31 57/77/31 5/64/31
f 57/77/31 53/79/31 5/64/31
f 53/79/31 49/81/31 45/83/31
f 45/83/31 41/85/31 53/79/31
f 41/85/31 37/62/31 53/79/31
f 37/62/31 33/88/31 29/90/31
f 29/90/31 25/92/31 37/62/31
f 25/92/31 21/63/31 37/62/31
f 21/63/31 17/95/31 13/97/31
f 13/97/31 9/99/31 21/63/31
f 9/99/31 5/64/31 21/63/31
f 5/64/31 53/79/31 37/62/31
f 61/65/32 63/67/32 64/66/32
f 63/67/33 2/101/33 1/68/33
f 64/71/34 1/102/34 8/103/34
f 1/102/34 4/104/34 8/103/34
f 4/104/34 6/105/34 8/103/34
f 8/103/34 10/106/34 16/107/34
f 10/106/34 12/108/34 16/107/34
f 12/108/34 14/109/34 16/107/34
f 16/107/34 18/110/34 24/111/34
f 18/110/34 20/112/34 24/111/34
f 20/112/34 22/113/34 24/111/34
f 24/111/34 26/114/34 32/115/34
f 26/114/34 28/116/34 32/115/34
f 28/116/34 30/117/34 32/115/34
f 32/115/34 34/118/34 40/119/34
f 34/118/34 36/120/34 40/119/34
f 36/120/34 38/121/34 40/119/34
f 40/119/34 42/122/34 48/69/34
f 42/122/34 44/123/34 48/69/34
f 44/123/34 46/124/34 48/69/34
f 48/69/34 50/125/34 56/70/34
f 50/125/34 52/126/34 56/70/34
f 52/126/34 54/127/34 56/70/34
f 56/70/34 58/128/34 64/71/34
f 58/128/34 60/129/34 64/71/34
f 60/129/34 62/130/34 64/71/34
f 64/71/34 8/103/34 16/107/34
f 16/107/34 24/111/34 64/71/34
f 24/111/34 32/115/34 64/71/34
f 32/115/34 40/119/34 64/71/34
f 40/119/34 48/69/34 64/71/34
o Cylinder.001_Cylinder.002
v 0.000000 0.150000 -0.490000
v 0.000000 0.250000 -0.490000
v 0.019509 0.250000 -0.488079
v 0.019509 0.150000 -0.488079
v 0.038268 0.250000 -0.482388
v 0.038268 0.150000 -0.482388
v 0.055557 0.250000 -0.473147
v 0.055557 0.150000 -0.473147
v 0.070711 0.250000 -0.460711
v 0.070711 0.150000 -0.460711
v 0.083147 0.250000 -0.445557
v 0.083147 0.150000 -0.445557
v 0.092388 0.250000 -0.428268
v 0.092388 0.150000 -0.428268
v 0.098079 0.250000 -0.409509
v 0.098079 0.150000 -0.409509
v 0.100000 0.250000 -0.390000
v 0.100000 0.150000 -0.390000
v 0.098079 0.250000 -0.370491
v 0.098079 0.150000 -0.370491
v 0.092388 0.250000 -0.351732
v 0.092388 0.150000 -0.351732
v 0.083147 0.250000 -0.334443
v 0.083147 0.150000 -0.334443
v 0.070711 0.250000 -0.319289
v 0.070711 0.150000 -0.319289
v 0.055557 0.250000 -0.306853
v 0.055557 0.150000 -0.306853
v 0.038268 0.250000 -0.297612
v 0.038268 0.150000 -0.297612
v 0.019509 0.250000 -0.291921
v 0.019509 0.150000 -0.291921
v 0.000000 0.250000 -0.290000
v 0.000000 0.150000 -0.290000
v -0.019509 0.250000 -0.291921
v -0.019509 0.150000 -0.291921
v -0.038268 0.250000 -0.297612
v -0.038268 0.150000 -0.297612
v -0.055557 0.250000 -0.306853
v -0.055557 0.150000 -0.306853
v -0.070711 0.250000 -0.319289
v -0.070711 0.150000 -0.319289
v -0.083147 0.250000 -0.334443
v -0.083147 0.150000 -0.334443
v -0.092388 0.250000 -0.351732
v -0.092388 0.150000 -0.351732
v -0.098079 0.250000 -0.370491
v -0.098079 0.150000 -0.370491
v -0.100000 0.250000 -0.390000
v -0.100000 0.150000 -0.390000
v -0.098079 0.250000 -0.409509
v -0.098079 0.150000 -0.409509
v -0.092388 0.250000 -0.428268
v -0.092388 0.150000 -0.428268
v -0.083147 0.250000 -0.445557
v -0.083147 0.150000 -0.445557
v -0.070711 0.250000 -0.460711
v -0.070711 0.150000 -0.460711
v -0.055557 0.250000 -0.473147
v -0.055557 0.150000 -0.473147
v -0.038268 0.250000 -0.482388
v -0.038268 0.150000 -0.482388
v -0.019509 0.250000 -0.488079
v -0.019509 0.150000 -0.488079
vt 0.438695 0.948171
vt 0.430924 0.823833
vt 0.438695 0.823833
vt 0.430924 0.948171
vt 0.423153 0.823833
vt 0.423153 0.948171
vt 0.415382 0.823833
vt 0.415382 0.948171
vt 0.407611 0.823833
vt 0.407611 0.948171
vt 0.399840 0.823833
vt 0.399840 0.948171
vt 0.392069 0.823833
vt 0.392069 0.948171
vt 0.384298 0.823833
vt 0.384298 0.948171
vt 0.376527 0.823833
vt 0.376527 0.948171
vt 0.368755 0.823833
vt 0.368755 0.948171
vt 0.360984 0.823833
vt 0.360984 0.948171
vt 0.353213 0.823833
vt 0.353213 0.948171
vt 0.345442 0.823833
vt 0.345442 0.948171
vt 0.337671 0.823833
vt 0.337671 0.948171
vt 0.329900 0.823833
vt 0.329900 0.948171
vt 0.322129 0.823833
vt 0.322129 0.948171
vt 0.314358 0.823833
vt 0.314358 0.948171
vt 0.306586 0.823833
vt 0.306586 0.948171
vt 0.298815 0.823833
vt 0.298815 0.948171
vt 0.291044 0.823833
vt 0.291044 0.948171
vt 0.283273 0.823833
vt 0.283273 0.948171
vt 0.275502 0.823833
vt 0.275502 0.948171
vt 0.267731 0.823833
vt 0.267731 0.948171
vt 0.259960 0.823833
vt 0.259960 0.948171
vt 0.252189 0.823833
vt 0.252189 0.948171
vt 0.244418 0.823833
vt 0.244418 0.948171
vt 0.236646 0.823833
vt 0.236646 0.948171
vt 0.228875 0.823833
vt 0.228875 0.948171
vt 0.221104 0.823833
vt 0.221104 0.948171
vt 0.213333 0.823833
vt 0.213333 0.948171
vt 0.205562 0.823833
vt 0.760300 0.855666
vt 0.724323 0.942521
vt 0.637469 0.906545
vt 0.205562 0.948171
vt 0.197791 0.823833
vt 0.197791 0.948171
vt 0.190020 0.823833
vt 0.615666 0.844173
vt 0.573362 0.815907
vt 0.547424 0.946304
vt 0.673445 0.819690
vt 0.685915 0.815907
vt 0.698884 0.814630
vt 0.711853 0.815907
vt 0.724323 0.819690
vt 0.735816 0.825833
vt 0.745890 0.834100
vt 0.754157 0.844173
vt 0.764082 0.868137
vt 0.765360 0.881105
vt 0.764082 0.894074
vt 0.760300 0.906545
vt 0.754157 0.918037
vt 0.745890 0.928111
vt 0.735816 0.936378
vt 0.711853 0.946304
vt 0.698884 0.947581
vt 0.685915 0.946304
vt 0.673445 0.942521
vt 0.661952 0.936378
vt 0.651879 0.928111
vt 0.643611 0.918037
vt 0.633686 0.894074
vt 0.632408 0.881105
vt 0.633686 0.868137
vt 0.637469 0.855666
vt 0.643611 0.844173
vt 0.651879 0.834100
vt 0.661952 0.825833
vt 0.190020 0.948171
vt 0.560393 0.814630
vt 0.523461 0.825833
vt 0.547424 0.815907
vt 0.534954 0.819690
vt 0.513387 0.834100
vt 0.505120 0.844173
vt 0.498978 0.855666
vt 0.495195 0.868137
vt 0.493917 0.881105
vt 0.505120 0.918037
vt 0.495195 0.894074
vt 0.498978 0.906545
vt 0.513387 0.928111
vt 0.523461 0.936378
vt 0.534954 0.942521
vt 0.560393 0.947581
vt 0.597325 0.936378
vt 0.573362 0.946304
vt 0.585832 0.942521
vt 0.607399 0.928111
vt 0.615666 0.918037
vt 0.621809 0.906545
vt 0.625591 0.894074
vt 0.626869 0.881105
vt 0.625591 0.868137
vt 0.621809 0.855666
vt 0.607399 0.834100
vt 0.597325 0.825833
vt 0.585832 0.819690
vn 0.0980 0.0000 -0.9952
vn 0.2903 0.0000 -0.9569
vn 0.4714 0.0000 -0.8819
vn 0.6344 0.0000 -0.7730
vn 0.7730 0.0000 -0.6344
vn 0.8819 0.0000 -0.4714
vn 0.9569 0.0000 -0.2903
vn 0.9952 0.0000 -0.0980
vn 0.9952 -0.0000 0.0980
vn 0.9569 -0.0000 0.2903
vn 0.8819 0.0000 0.4714
vn 0.7730 0.0000 0.6344
vn 0.6344 0.0000 0.7730
vn 0.4714 0.0000 0.8819
vn 0.2903 0.0000 0.9569
vn 0.0980 0.0000 0.9952
vn -0.0980 0.0000 0.9952
vn -0.2903 0.0000 0.9569
vn -0.4714 0.0000 0.8819
vn -0.6344 0.0000 0.7730
vn -0.7730 0.0000 0.6344
vn -0.8819 0.0000 0.4714
vn -0.9569 -0.0000 0.2903
vn -0.9952 -0.0000 0.0980
vn -0.9952 0.0000 -0.0980
vn -0.9569 0.0000 -0.2903
vn -0.8819 0.0000 -0.4714
vn -0.7730 0.0000 -0.6344
vn -0.6344 0.0000 -0.7730
vn -0.4714 0.0000 -0.8819
vn 0.0000 1.0000 0.0000
vn -0.2903 0.0000 -0.9569
vn -0.0980 0.0000 -0.9952
vn 0.0000 -1.0000 0.0000
usemtl None
s 1
f 66/131/35 68/132/35 65/133/35
f 67/134/36 70/135/36 68/132/36
f 69/136/37 72/137/37 70/135/37
f 71/138/38 74/139/38 72/137/38
f 73/140/39 76/141/39 74/139/39
f 75/142/40 78/143/40 76/141/40
f 77/144/41 80/145/41 78/143/41
f 79/146/42 82/147/42 80/145/42
f 81/148/43 84/149/43 82/147/43
f 83/150/44 86/151/44 84/149/44
f 85/152/45 88/153/45 86/151/45
f 87/154/46 90/155/46 88/153/46
f 89/156/47 92/157/47 90/155/47
f 91/158/48 94/159/48 92/157/48
f 93/160/49 96/161/49 94/159/49
f 95/162/50 98/163/50 96/161/50
f 97/164/51 100/165/51 98/163/51
f 99/166/52 102/167/52 100/165/52
f 101/168/53 104/169/53 102/167/53
f 103/170/54 106/171/54 104/169/54
f 105/172/55 108/173/55 106/171/55
f 107/174/56 110/175/56 108/173/56
f 109/176/57 112/177/57 110/175/57
f 111/178/58 114/179/58 112/177/58
f 113/180/59 116/181/59 114/179/59
f 115/182/60 118/183/60 116/181/60
f 117/184/61 120/185/61 118/183/61
f 119/186/62 122/187/62 120/185/62
f 121/188/63 124/189/63 122/187/63
f 123/190/64 126/191/64 124/189/64
f 117/192/65 101/193/65 85/194/65
f 125/195/66 128/196/66 126/191/66
f 127/197/67 65/198/67 128/196/67
f 120/199/68 128/200/68 96/201/68
f 66/131/35 67/134/35 68/132/35
f 67/134/36 69/136/36 70/135/36
f 69/136/37 71/138/37 72/137/37
f 71/138/38 73/140/38 74/139/38
f 73/140/39 75/142/39 76/141/39
f 75/142/40 77/144/40 78/143/40
f 77/144/41 79/146/41 80/145/41
f 79/146/42 81/148/42 82/147/42
f 81/148/43 83/150/43 84/149/43
f 83/150/44 85/152/44 86/151/44
f 85/152/45 87/154/45 88/153/45
f 87/154/46 89/156/46 90/155/46
f 89/156/47 91/158/47 92/157/47
f 91/158/48 93/160/48 94/159/48
f 93/160/49 95/162/49 96/161/49
f 95/162/50 97/164/50 98/163/50
f 97/164/51 99/166/51 100/165/51
f 99/166/52 101/168/52 102/167/52
f 101/168/53 103/170/53 104/169/53
f 103/170/54 105/172/54 106/171/54
f 105/172/55 107/174/55 108/173/55
f 107/174/56 109/176/56 110/175/56
f 109/176/57 111/178/57 112/177/57
f 111/178/58 113/180/58 114/179/58
f 113/180/59 115/182/59 116/181/59
f 115/182/60 117/184/60 118/183/60
f 117/184/61 119/186/61 120/185/61
f 119/186/62 121/188/62 122/187/62
f 121/188/63 123/190/63 124/189/63
f 123/190/64 125/195/64 126/191/64
f 69/202/65 67/203/65 66/204/65
f 66/204/65 127/205/65 125/206/65
f 125/206/65 123/207/65 121/208/65
f 121/208/65 119/209/65 125/206/65
f 119/209/65 117/192/65 125/206/65
f 117/192/65 115/210/65 113/211/65
f 113/211/65 111/212/65 109/213/65
f 109/213/65 107/214/65 105/215/65
f 105/215/65 103/216/65 109/213/65
f 103/216/65 101/193/65 109/213/65
f 101/193/65 99/217/65 97/218/65
f 97/218/65 95/219/65 93/220/65
f 93/220/65 91/221/65 85/194/65
f 91/221/65 89/222/65 85/194/65
f 89/222/65 87/223/65 85/194/65
f 85/194/65 83/224/65 81/225/65
f 81/225/65 79/226/65 77/227/65
f 77/227/65 75/228/65 73/229/65
f 73/229/65 71/230/65 77/227/65
f 71/230/65 69/202/65 77/227/65
f 69/202/65 66/204/65 125/206/65
f 117/192/65 113/211/65 109/213/65
f 101/193/65 97/218/65 93/220/65
f 85/194/65 81/225/65 77/227/65
f 69/202/65 125/206/65 117/192/65
f 117/192/65 109/213/65 101/193/65
f 101/193/65 93/220/65 85/194/65
f 85/194/65 77/227/65 69/202/65
f 69/202/65 117/192/65 85/194/65
f 125/195/66 127/197/66 128/196/66
f 127/197/67 66/231/67 65/198/67
f 128/200/68 65/232/68 72/233/68
f 65/232/68 68/234/68 72/233/68
f 68/234/68 70/235/68 72/233/68
f 72/233/68 74/236/68 76/237/68
f 76/237/68 78/238/68 72/233/68
f 78/238/68 80/239/68 72/233/68
f 80/239/68 82/240/68 88/241/68
f 82/240/68 84/242/68 88/241/68
f 84/242/68 86/243/68 88/241/68
f 88/241/68 90/244/68 92/245/68
f 92/245/68 94/246/68 88/241/68
f 94/246/68 96/201/68 88/241/68
f 96/201/68 98/247/68 104/248/68
f 98/247/68 100/249/68 104/248/68
f 100/249/68 102/250/68 104/248/68
f 104/248/68 106/251/68 108/252/68
f 108/252/68 110/253/68 104/248/68
f 110/253/68 112/254/68 104/248/68
f 112/254/68 114/255/68 120/199/68
f 114/255/68 116/256/68 120/199/68
f 116/256/68 118/257/68 120/199/68
f 120/199/68 122/258/68 124/259/68
f 124/259/68 126/260/68 120/199/68
f 126/260/68 128/200/68 120/199/68
f 128/200/68 72/233/68 96/201/68
f 72/233/68 80/239/68 96/201/68
f 80/239/68 88/241/68 96/201/68
f 96/201/68 104/248/68 112/254/68
f 112/254/68 120/199/68 96/201/68
